<?xml version="1.0" encoding="UTF-8" standalone="no"?> <svg width="48" height="48" viewBox="0 0 48 48" fill="none" xmlns="http://www.w3.org/2000/svg">
<path d="M37 46.73C36.5411 46.9947 35.9958 47.0666 35.484 46.9297C34.9722 46.7928 34.5356 46.4585 34.27 46L31.73 41.61L27.33 34H32L35.35 39.85L37.73 44C37.9947 44.4589 38.0666 45.0042 37.9297 45.516C37.7928 46.0278 37.4585 46.4644 37 46.73Z" fill="#E67244"/>
<path d="M20.67 34L16.27 41.61L13.73 46C13.4533 46.4353 13.019 46.7469 12.518 46.8696C12.017 46.9923 11.4879 46.9167 11.0413 46.6586C10.5947 46.4004 10.2651 45.9797 10.1214 45.4843C9.97764 44.9889 10.0309 44.4571 10.27 44L12.65 39.85L16 34H20.67Z" fill="#E67244"/>
<path d="M13.082 39.1C14.2518 39.7709 15.481 40.3322 16.754 40.777L20.67 34H16L13.082 39.1Z" fill="#C6512B"/>
<path d="M32 34H27.33L31.246 40.773C32.5189 40.3295 33.7481 39.7695 34.918 39.1L32 34Z" fill="#C6512B"/>
<path d="M24 39C34.4934 39 43 30.4934 43 20C43 9.50659 34.4934 1 24 1C13.5066 1 5 9.50659 5 20C5 30.4934 13.5066 39 24 39Z" fill="#EAEFF0"/>
<path d="M24 34C31.732 34 38 27.732 38 20C38 12.268 31.732 6 24 6C16.268 6 10 12.268 10 20C10 27.732 16.268 34 24 34Z" fill="#009AE0"/>
<path d="M24 29C28.9706 29 33 24.9706 33 20C33 15.0294 28.9706 11 24 11C19.0294 11 15 15.0294 15 20C15 24.9706 19.0294 29 24 29Z" fill="#FD3730"/>
<path d="M24 24C26.2091 24 28 22.2091 28 20C28 17.7909 26.2091 16 24 16C21.7909 16 20 17.7909 20 20C20 22.2091 21.7909 24 24 24Z" fill="#FAC100"/>
<path d="M24 21C23.7349 21.0002 23.4807 20.8952 23.293 20.708L13.073 10.5C13.052 10.478 13.032 10.456 13.013 10.433C12.78 10.185 11.3 8.70898 11.3 8.70898L12.71 7.29099L13.61 8.18399C13.975 8.54899 14.27 8.84399 14.478 9.10099L14.496 9.08299L24.716 19.292C24.8567 19.4323 24.9524 19.6114 24.9909 19.8064C25.0294 20.0013 25.0089 20.2034 24.9321 20.3866C24.8552 20.5699 24.7255 20.7262 24.5595 20.8354C24.3935 20.9446 24.1987 21.0019 24 21V21Z" fill="#2D4A60"/>
<path d="M10.1 10.694C9.83753 10.6945 9.57754 10.6431 9.33503 10.5427C9.09252 10.4423 8.87228 10.2949 8.687 10.109L5.44 6.868C5.23841 6.66673 5.09829 6.41223 5.03604 6.13425C4.97379 5.85627 4.99199 5.56631 5.0885 5.29829C5.185 5.03027 5.35583 4.79528 5.581 4.62079C5.80618 4.44631 6.07638 4.33955 6.36 4.313L8.16 4.146L8.318 2.368C8.3432 2.0837 8.44899 1.8125 8.62294 1.58623C8.7969 1.35996 9.03179 1.18801 9.30006 1.09057C9.56832 0.993139 9.85881 0.97426 10.1374 1.03615C10.416 1.09805 10.6712 1.23815 10.873 1.44L14.111 4.679C14.3185 4.88527 14.478 5.13484 14.5779 5.40987C14.6778 5.6849 14.7158 5.9786 14.689 6.27L14.478 8.648C14.4368 9.11398 14.2335 9.55077 13.9035 9.88238C13.5735 10.214 13.1378 10.4194 12.672 10.463L10.272 10.686C10.249 10.688 10.125 10.694 10.1 10.694Z" fill="#FAC100"/>
<path d="M8.682 10.109C8.86728 10.2949 9.08752 10.4423 9.33003 10.5427C9.57254 10.6431 9.83253 10.6945 10.095 10.694C10.125 10.694 10.249 10.688 10.28 10.686L12.68 10.463C13.14 10.4203 13.5708 10.2191 13.899 9.894L8.147 4.147L6.36 4.313C6.07638 4.33955 5.80618 4.44631 5.581 4.6208C5.35583 4.79528 5.185 5.03028 5.0885 5.2983C4.99199 5.56632 4.97379 5.85627 5.03604 6.13425C5.09829 6.41223 5.23841 6.66674 5.44 6.868L8.682 10.109Z" fill="#FF9500"/>
</svg>
