<?xml version="1.0" encoding="UTF-8" standalone="no"?>
<svg
   xmlns:dc="http://purl.org/dc/elements/1.1/"
   xmlns:cc="http://creativecommons.org/ns#"
   xmlns:rdf="http://www.w3.org/1999/02/22-rdf-syntax-ns#"
   xmlns:svg="http://www.w3.org/2000/svg"
   xmlns="http://www.w3.org/2000/svg"
   xmlns:sodipodi="http://sodipodi.sourceforge.net/DTD/sodipodi-0.dtd"
   xmlns:inkscape="http://www.inkscape.org/namespaces/inkscape"
   width="64"
   height="64"
   viewBox="0 0 16.933333 16.933334"
   version="1.1"
   id="svg8"
   inkscape:version="0.92.4 (5da689c313, 2019-01-14)"
   sodipodi:docname="20-Creativity.svg"
   inkscape:export-filename="/home/wanzabuyumna/@WANZ_DESIGN/NICON STUDIO MAGANG/Style Line/Style Line/Icon 8/Icon 8.png"
   inkscape:export-xdpi="96"
   inkscape:export-ydpi="96">
  <defs
     id="defs2" />
  <sodipodi:namedview
     id="base"
     pagecolor="#ffffff"
     bordercolor="#959595"
     borderopacity="1"
     inkscape:pageopacity="0"
     inkscape:pageshadow="2"
     inkscape:zoom="2.8"
     inkscape:cx="-21.978155"
     inkscape:cy="55.574716"
     inkscape:document-units="px"
     inkscape:current-layer="layer1"
     inkscape:document-rotation="0"
     showgrid="false"
     units="px"
     inkscape:window-width="1920"
     inkscape:window-height="1040"
     inkscape:window-x="0"
     inkscape:window-y="0"
     inkscape:window-maximized="1"
     inkscape:pagecheckerboard="0" />
  <metadata
     id="metadata5">
    <rdf:RDF>
      <cc:Work
         rdf:about="">
        <dc:format>image/svg+xml</dc:format>
        <dc:type
           rdf:resource="http://purl.org/dc/dcmitype/StillImage" />
      </cc:Work>
    </rdf:RDF>
  </metadata>
  <g
     inkscape:label="20-Creativity"
     inkscape:groupmode="layer"
     id="layer1">
    <path
       inkscape:connector-curvature="0"
       id="path6280"
       d="m 13.49375,8.466559 c -0.352865,0 -0.352865,0.5292972 0,0.5292972 h 0.529101 c 0.352865,0 0.352865,-0.5292972 0,-0.5292972 z"
       style="color:#000000;font-style:normal;font-variant:normal;font-weight:normal;font-stretch:normal;font-size:medium;line-height:normal;font-family:sans-serif;font-variant-ligatures:normal;font-variant-position:normal;font-variant-caps:normal;font-variant-numeric:normal;font-variant-alternates:normal;font-feature-settings:normal;text-indent:0;text-align:start;text-decoration:none;text-decoration-line:none;text-decoration-style:solid;text-decoration-color:#000000;letter-spacing:normal;word-spacing:normal;text-transform:none;writing-mode:lr-tb;direction:ltr;text-orientation:mixed;dominant-baseline:auto;baseline-shift:baseline;text-anchor:start;white-space:normal;shape-padding:0;clip-rule:nonzero;display:inline;overflow:visible;visibility:visible;opacity:1;isolation:auto;mix-blend-mode:normal;color-interpolation:sRGB;color-interpolation-filters:linearRGB;solid-color:#000000;solid-opacity:1;vector-effect:none;fill:#ffca28;fill-opacity:1;fill-rule:nonzero;stroke:none;stroke-width:0.52916664;stroke-linecap:round;stroke-linejoin:miter;stroke-miterlimit:4;stroke-dasharray:none;stroke-dashoffset:0;stroke-opacity:1;color-rendering:auto;image-rendering:auto;shape-rendering:auto;text-rendering:auto;enable-background:accumulate"
       sodipodi:nodetypes="ccccc" />
    <path
       inkscape:connector-curvature="0"
       id="path6114"
       d="M 1.3222902,5.8206337 C 1.1605001,6.3921998 0.76556122,6.8370093 0.26453025,7.0119617 0.76578748,7.1862637 1.1612014,7.630616 1.3235402,8.2020398 1.4853284,7.6304764 1.880263,7.1856674 2.3812902,7.0107118 1.8800368,6.8364066 1.484627,6.3920548 1.3222902,5.8206337 Z"
       style="opacity:1;fill:#e4eff8;fill-opacity:1;stroke:none;stroke-width:0.5291667;stroke-linecap:butt;stroke-linejoin:round;stroke-miterlimit:4;stroke-dasharray:none;stroke-dashoffset:0;stroke-opacity:1"
       sodipodi:nodetypes="ccccc" />
    <path
       style="opacity:1;fill:#ffca28;fill-opacity:1;stroke:none;stroke-width:0.58037287;stroke-linecap:butt;stroke-linejoin:round;stroke-miterlimit:4;stroke-dasharray:none;stroke-dashoffset:0;stroke-opacity:1"
       d="M 1.3050988,13.741063 C 1.1054769,14.507237 0.61818849,15.103495 2.4999999e-7,15.338015 0.61846495,15.571665 1.1063367,16.16731 1.3066343,16.933291 1.5062562,16.167117 1.9935447,15.570859 2.611733,15.336339 1.9932682,15.102689 1.5053964,14.507044 1.3050988,13.741063 Z"
       id="path6117"
       inkscape:connector-curvature="0"
       sodipodi:nodetypes="ccccc" />
    <path
       inkscape:connector-curvature="0"
       id="path6120"
       d="m 15.626699,13.741148 c -0.199622,0.766174 -0.686911,1.362432 -1.305099,1.596952 0.618465,0.23365 1.106336,0.829295 1.306634,1.595276 0.199622,-0.766174 0.686911,-1.362432 1.305099,-1.596952 -0.618465,-0.23365 -1.106336,-0.829295 -1.306634,-1.595276 z"
       style="opacity:1;fill:#ffca28;fill-opacity:1;stroke:none;stroke-width:0.58037287;stroke-linecap:butt;stroke-linejoin:round;stroke-miterlimit:4;stroke-dasharray:none;stroke-dashoffset:0;stroke-opacity:1"
       sodipodi:nodetypes="ccccc" />
    <path
       id="path6122"
       d="m 16.183442,14.805069 c -0.271039,0.546341 -0.668286,0.914268 -1.033789,1.154511 0.218374,0.27343 0.38222,0.606945 0.478354,0.973711 0.199736,-0.766086 0.687084,-1.362204 1.305272,-1.596592 -0.278281,-0.106261 -0.534317,-0.287789 -0.749837,-0.53163 z"
       style="fill:#ecb200;fill-opacity:1;stroke:none;stroke-width:0.29018641px;stroke-linecap:butt;stroke-linejoin:miter;stroke-opacity:1"
       inkscape:connector-curvature="0"
       sodipodi:nodetypes="ccccc" />
    <path
       style="opacity:1;fill:#e4eff8;fill-opacity:1;stroke:none;stroke-width:0.5291667;stroke-linecap:butt;stroke-linejoin:round;stroke-miterlimit:4;stroke-dasharray:none;stroke-dashoffset:0;stroke-opacity:1"
       d="m 15.60975,5.8206337 c -0.16179,0.5715661 -0.556729,1.0163757 -1.05776,1.191328 0.501257,0.174302 0.896671,0.6186543 1.05901,1.1900781 0.161788,-0.5715634 0.556723,-1.0163724 1.05775,-1.191328 -0.501253,-0.1743052 -0.896663,-0.618657 -1.059,-1.1900781 z"
       id="path6124"
       inkscape:connector-curvature="0"
       sodipodi:nodetypes="ccccc" />
    <path
       style="opacity:1;fill:#ffca28;fill-opacity:1;stroke:none;stroke-width:0.5291667;stroke-linecap:butt;stroke-linejoin:round;stroke-miterlimit:4;stroke-dasharray:none;stroke-dashoffset:0;stroke-opacity:1"
       d="M 0.92555225,-4.225e-5 C 0.78398418,0.50801782 0.43840818,0.90340513 2.4999999e-7,1.0589188 0.43860604,1.2138541 0.78459783,1.6088346 0.92664625,2.1167678 1.0682127,1.6087106 1.4137849,1.2133241 1.8521892,1.0578077 1.4135867,0.90286923 1.0675987,0.50788885 0.92555225,-4.225e-5 Z"
       id="path6126"
       inkscape:connector-curvature="0"
       sodipodi:nodetypes="ccccc" />
    <path
       inkscape:connector-curvature="0"
       id="path6128"
       d="M 16.006696,-4.225e-5 C 15.865128,0.50801782 15.519552,0.90340513 15.081144,1.0589188 15.51975,1.2138541 15.865742,1.6088346 16.00779,2.1167678 16.149357,1.6087106 16.494929,1.2133241 16.933333,1.0578077 16.49473,0.90286925 16.148742,0.50788887 16.006696,-4.225e-5 Z"
       style="opacity:1;fill:#ffca28;fill-opacity:1;stroke:none;stroke-width:0.5291667;stroke-linecap:butt;stroke-linejoin:round;stroke-miterlimit:4;stroke-dasharray:none;stroke-dashoffset:0;stroke-opacity:1"
       sodipodi:nodetypes="ccccc" />
    <path
       style="opacity:1;fill:#e4eff8;fill-opacity:1;stroke:none;stroke-width:0.52916664;stroke-linecap:butt;stroke-linejoin:round;stroke-miterlimit:4;stroke-dasharray:none;stroke-dashoffset:0;stroke-opacity:1"
       d="m 9.2604172,15.345791 v 0.529166 c 0,0.293159 -0.236007,0.529167 -0.529166,0.529167 h -0.529167 c -0.293158,0 -0.529167,-0.236008 -0.529167,-0.529167 v -0.529166 z"
       id="path6130"
       inkscape:connector-curvature="0"
       sodipodi:nodetypes="ccccccc" />
    <path
       inkscape:connector-curvature="0"
       style="fill:#c4dcf0;fill-opacity:1;stroke:none;stroke-width:0.26458332px;stroke-linecap:butt;stroke-linejoin:miter;stroke-opacity:1"
       d="m 9.2604168,15.517874 c -0.381554,0.369573 -1.0510861,0.517665 -1.5384073,0.577742 0.083529,0.181928 0.2660912,0.308508 0.480074,0.308508 h 0.5291666 c 0.2931592,0 0.5291667,-0.236007 0.5291667,-0.529166 z"
       id="path6250"
       sodipodi:nodetypes="cccccc" />
    <path
       sodipodi:nodetypes="ccccccc"
       inkscape:connector-curvature="0"
       id="path6132"
       d="m 10.054167,13.493734 v 1.587473 c 0,0.293159 -0.2360078,0.529167 -0.5291658,0.529167 h -2.116667 c -0.293158,0 -0.529167,-0.236008 -0.529167,-0.529167 v -1.587473 z"
       style="opacity:1;fill:#e4eff8;fill-opacity:1;stroke:none;stroke-width:0.52916664;stroke-linecap:round;stroke-linejoin:round;stroke-miterlimit:4;stroke-dasharray:none;stroke-dashoffset:0;stroke-opacity:1" />
    <path
       inkscape:connector-curvature="0"
       id="path6136"
       style="display:inline;opacity:1;fill:#ffca28;fill-opacity:1;stroke:none;stroke-width:0.52916706;stroke-linecap:round;stroke-linejoin:round;paint-order:stroke fill markers"
       d="m 10.167596,13.326423 c 0,-1.195708 2.26789,-2.120467 2.26789,-4.6262612 0,-2.1747221 -1.587568,-3.9376811 -3.9688178,-3.9376811 -2.381252,0 -3.968819,1.7629591 -3.968819,3.9376811 0,2.5057942 2.267889,3.4305532 2.267889,4.6262612 z"
       sodipodi:nodetypes="cccccc" />
    <path
       id="path6138"
       d="m 10.884607,5.5221013 c 1.818308,4.9785197 -2.2117841,7.0070707 -4.3015463,7.2000777 0.1116642,0.199619 0.1829348,0.39786 0.1829348,0.604097 h 3.4013425 c 0,-1.195708 2.268079,-2.12028 2.268079,-4.6260744 0,-1.306884 -0.576454,-2.461855 -1.55081,-3.1781003 z"
       style="fill:#ecb200;fill-opacity:1;stroke:none;stroke-width:0.26458332px;stroke-linecap:butt;stroke-linejoin:miter;stroke-opacity:1"
       inkscape:connector-curvature="0"
       sodipodi:nodetypes="cccccc" />
    <path
       id="path6293"
       d="m 4.9220866,6.8507023 c 0.3961328,0.5077603 0.8377647,1.0295844 1.3234333,1.5544271 1.4569088,1.5744235 3.0586623,2.9287496 4.4524411,3.8126876 -0.118484,0.146278 -0.2231,0.288004 -0.309025,0.428397 C 8.9465622,11.727868 7.3229252,10.349533 5.8574299,8.7658307 5.4381558,8.3127382 5.0501753,7.8611928 4.6941933,7.4175927 4.7569109,7.221521 4.8312988,7.0313688 4.9220866,6.8507023 Z"
       style="color:#000000;font-style:normal;font-variant:normal;font-weight:normal;font-stretch:normal;font-size:medium;line-height:normal;font-family:sans-serif;font-variant-ligatures:normal;font-variant-position:normal;font-variant-caps:normal;font-variant-numeric:normal;font-variant-alternates:normal;font-feature-settings:normal;text-indent:0;text-align:start;text-decoration:none;text-decoration-line:none;text-decoration-style:solid;text-decoration-color:#000000;letter-spacing:normal;word-spacing:normal;text-transform:none;writing-mode:lr-tb;direction:ltr;text-orientation:mixed;dominant-baseline:auto;baseline-shift:baseline;text-anchor:start;white-space:normal;shape-padding:0;clip-rule:nonzero;display:inline;overflow:visible;visibility:visible;opacity:1;isolation:auto;mix-blend-mode:normal;color-interpolation:sRGB;color-interpolation-filters:linearRGB;solid-color:#000000;solid-opacity:1;vector-effect:none;fill:#ecb200;fill-opacity:1;fill-rule:nonzero;stroke:none;stroke-width:0.52916664;stroke-linecap:round;stroke-linejoin:round;stroke-miterlimit:4;stroke-dasharray:none;stroke-dashoffset:0;stroke-opacity:1;color-rendering:auto;image-rendering:auto;shape-rendering:auto;text-rendering:auto;enable-background:accumulate"
       inkscape:connector-curvature="0"
       sodipodi:nodetypes="ccccccc" />
    <path
       style="color:#000000;font-style:normal;font-variant:normal;font-weight:normal;font-stretch:normal;font-size:medium;line-height:normal;font-family:sans-serif;font-variant-ligatures:normal;font-variant-position:normal;font-variant-caps:normal;font-variant-numeric:normal;font-variant-alternates:normal;font-feature-settings:normal;text-indent:0;text-align:start;text-decoration:none;text-decoration-line:none;text-decoration-style:solid;text-decoration-color:#000000;letter-spacing:normal;word-spacing:normal;text-transform:none;writing-mode:lr-tb;direction:ltr;text-orientation:mixed;dominant-baseline:auto;baseline-shift:baseline;text-anchor:start;white-space:normal;shape-padding:0;clip-rule:nonzero;display:inline;overflow:visible;visibility:visible;opacity:1;isolation:auto;mix-blend-mode:normal;color-interpolation:sRGB;color-interpolation-filters:linearRGB;solid-color:#000000;solid-opacity:1;vector-effect:none;fill:#ecb200;fill-opacity:1;fill-rule:nonzero;stroke:none;stroke-width:0.52916664;stroke-linecap:round;stroke-linejoin:round;stroke-miterlimit:4;stroke-dasharray:none;stroke-dashoffset:0;stroke-opacity:1;color-rendering:auto;image-rendering:auto;shape-rendering:auto;text-rendering:auto;enable-background:accumulate"
       d="m 8.4667971,5.5565983 c -0.649975,0 -1.2853918,0.1982735 -1.8183594,0.5703125 C 6.358009,6.3300244 6.6626965,6.7655713 6.9531252,6.5624577 7.397308,6.2523951 7.9250986,6.0858952 8.4667971,6.0858952 c 0.3528644,0 0.3528644,-0.5292969 0,-0.5292969 z"
       id="path6142"
       inkscape:connector-curvature="0"
       sodipodi:nodetypes="ccccc" />
    <path
       style="opacity:1;fill:#ecb200;fill-opacity:1;stroke:none;stroke-width:0.52916664;stroke-linecap:round;stroke-linejoin:round;stroke-miterlimit:4;stroke-dasharray:none;stroke-dashoffset:0;stroke-opacity:1"
       d="m 6.3500049,7.1437063 c 0,0.1461253 -0.118458,0.2645833 -0.2645833,0.2645833 -0.1461254,0 -0.2645834,-0.1184579 -0.2645834,-0.2645833 0,-0.1461254 0.118458,-0.2645833 0.2645834,-0.2645833 0.1461253,0 0.2645833,0.118458 0.2645833,0.2645833 z"
       id="circle6144"
       inkscape:connector-curvature="0"
       sodipodi:nodetypes="ccccc" />
    <path
       style="color:#000000;font-style:normal;font-variant:normal;font-weight:normal;font-stretch:normal;font-size:medium;line-height:normal;font-family:sans-serif;font-variant-ligatures:normal;font-variant-position:normal;font-variant-caps:normal;font-variant-numeric:normal;font-variant-alternates:normal;font-feature-settings:normal;text-indent:0;text-align:start;text-decoration:none;text-decoration-line:none;text-decoration-style:solid;text-decoration-color:#000000;letter-spacing:normal;word-spacing:normal;text-transform:none;writing-mode:lr-tb;direction:ltr;text-orientation:mixed;dominant-baseline:auto;baseline-shift:baseline;text-anchor:start;white-space:normal;shape-padding:0;clip-rule:nonzero;display:inline;overflow:visible;visibility:visible;opacity:1;isolation:auto;mix-blend-mode:normal;color-interpolation:sRGB;color-interpolation-filters:linearRGB;solid-color:#000000;solid-opacity:1;vector-effect:none;fill:#ffca28;fill-opacity:1;fill-rule:nonzero;stroke:none;stroke-width:0.52916664;stroke-linecap:round;stroke-linejoin:miter;stroke-miterlimit:4;stroke-dasharray:none;stroke-dashoffset:0;stroke-opacity:1;color-rendering:auto;image-rendering:auto;shape-rendering:auto;text-rendering:auto;enable-background:accumulate"
       d="M 8.4628908,2.9062078 C 8.3159417,2.9077879 8.1984304,3.028807 8.2011721,3.175739 v 0.5292968 c 0,0.3528645 0.5292969,0.3528645 0.5292969,0 V 3.175739 C 8.7332547,3.0265093 8.6121368,2.9045074 8.4628908,2.9062078 Z"
       id="path6159"
       inkscape:connector-curvature="0"
       sodipodi:nodetypes="cccccc" />
    <path
       style="color:#000000;font-style:normal;font-variant:normal;font-weight:normal;font-stretch:normal;font-size:medium;line-height:normal;font-family:sans-serif;font-variant-ligatures:normal;font-variant-position:normal;font-variant-caps:normal;font-variant-numeric:normal;font-variant-alternates:normal;font-feature-settings:normal;text-indent:0;text-align:start;text-decoration:none;text-decoration-line:none;text-decoration-style:solid;text-decoration-color:#000000;letter-spacing:normal;word-spacing:normal;text-transform:none;writing-mode:lr-tb;direction:ltr;text-orientation:mixed;dominant-baseline:auto;baseline-shift:baseline;text-anchor:start;white-space:normal;shape-padding:0;clip-rule:nonzero;display:inline;overflow:visible;visibility:visible;opacity:1;isolation:auto;mix-blend-mode:normal;color-interpolation:sRGB;color-interpolation-filters:linearRGB;solid-color:#000000;solid-opacity:1;vector-effect:none;fill:#ffca28;fill-opacity:1;fill-rule:nonzero;stroke:none;stroke-width:0.52916664;stroke-linecap:round;stroke-linejoin:miter;stroke-miterlimit:4;stroke-dasharray:none;stroke-dashoffset:0;stroke-opacity:1;color-rendering:auto;image-rendering:auto;shape-rendering:auto;text-rendering:auto;enable-background:accumulate"
       d="m 12.390625,4.535114 c -0.06865,0.00211 -0.13378,0.030825 -0.181641,0.080078 l -0.375,0.375 c -0.264983,0.2499116 0.126476,0.639331 0.375,0.3730468 L 12.582031,4.9901922 C 12.756308,4.822335 12.632487,4.5279432 12.390625,4.535114 Z"
       id="path6161"
       inkscape:connector-curvature="0"
       sodipodi:nodetypes="cccccc" />
    <path
       style="color:#000000;font-style:normal;font-variant:normal;font-weight:normal;font-stretch:normal;font-size:medium;line-height:normal;font-family:sans-serif;font-variant-ligatures:normal;font-variant-position:normal;font-variant-caps:normal;font-variant-numeric:normal;font-variant-alternates:normal;font-feature-settings:normal;text-indent:0;text-align:start;text-decoration:none;text-decoration-line:none;text-decoration-style:solid;text-decoration-color:#000000;letter-spacing:normal;word-spacing:normal;text-transform:none;writing-mode:lr-tb;direction:ltr;text-orientation:mixed;dominant-baseline:auto;baseline-shift:baseline;text-anchor:start;white-space:normal;shape-padding:0;clip-rule:nonzero;display:inline;overflow:visible;visibility:visible;opacity:1;isolation:auto;mix-blend-mode:normal;color-interpolation:sRGB;color-interpolation-filters:linearRGB;solid-color:#000000;solid-opacity:1;vector-effect:none;fill:#ffca28;fill-opacity:1;fill-rule:nonzero;stroke:none;stroke-width:0.52916664;stroke-linecap:round;stroke-linejoin:miter;stroke-miterlimit:4;stroke-dasharray:none;stroke-dashoffset:0;stroke-opacity:1;color-rendering:auto;image-rendering:auto;shape-rendering:auto;text-rendering:auto;enable-background:accumulate"
       d="M 4.5351564,4.535114 C 4.2971385,4.535196 4.1802354,4.8249668 4.3515627,4.9901922 L 4.7246096,5.363239 c 0.2485244,0.2662842 0.6399827,-0.1231352 0.375,-0.3730468 l -0.375,-0.375 C 4.674841,4.5640436 4.6065222,4.5351666 4.5351564,4.535114 Z"
       id="path6169"
       inkscape:connector-curvature="0"
       sodipodi:nodetypes="cccccc" />
    <path
       style="color:#000000;font-style:normal;font-variant:normal;font-weight:normal;font-stretch:normal;font-size:medium;line-height:normal;font-family:sans-serif;font-variant-ligatures:normal;font-variant-position:normal;font-variant-caps:normal;font-variant-numeric:normal;font-variant-alternates:normal;font-feature-settings:normal;text-indent:0;text-align:start;text-decoration:none;text-decoration-line:none;text-decoration-style:solid;text-decoration-color:#000000;letter-spacing:normal;word-spacing:normal;text-transform:none;writing-mode:lr-tb;direction:ltr;text-orientation:mixed;dominant-baseline:auto;baseline-shift:baseline;text-anchor:start;white-space:normal;shape-padding:0;clip-rule:nonzero;display:inline;overflow:visible;visibility:visible;opacity:1;isolation:auto;mix-blend-mode:normal;color-interpolation:sRGB;color-interpolation-filters:linearRGB;solid-color:#000000;solid-opacity:1;vector-effect:none;fill:#ffca28;fill-opacity:1;fill-rule:nonzero;stroke:none;stroke-width:0.52916664;stroke-linecap:round;stroke-linejoin:miter;stroke-miterlimit:4;stroke-dasharray:none;stroke-dashoffset:0;stroke-opacity:1;color-rendering:auto;image-rendering:auto;shape-rendering:auto;text-rendering:auto;enable-background:accumulate"
       d="m 12.25,12.050739 0.416016,0.328125 c 0.277343,0.21875 0.605468,-0.197265 0.328125,-0.416015 l -0.416016,-0.328125 c -0.04859,-0.03919 -0.109466,-0.05995 -0.171875,-0.05859 -0.250517,0.0044 -0.355135,0.322216 -0.15625,0.474607 z"
       id="path6176"
       inkscape:connector-curvature="0"
       sodipodi:nodetypes="ccccccc" />
    <path
       style="color:#000000;font-style:normal;font-variant:normal;font-weight:normal;font-stretch:normal;font-size:medium;line-height:normal;font-family:sans-serif;font-variant-ligatures:normal;font-variant-position:normal;font-variant-caps:normal;font-variant-numeric:normal;font-variant-alternates:normal;font-feature-settings:normal;text-indent:0;text-align:start;text-decoration:none;text-decoration-line:none;text-decoration-style:solid;text-decoration-color:#000000;letter-spacing:normal;word-spacing:normal;text-transform:none;writing-mode:lr-tb;direction:ltr;text-orientation:mixed;dominant-baseline:auto;baseline-shift:baseline;text-anchor:start;white-space:normal;shape-padding:0;clip-rule:nonzero;display:inline;overflow:visible;visibility:visible;opacity:1;isolation:auto;mix-blend-mode:normal;color-interpolation:sRGB;color-interpolation-filters:linearRGB;solid-color:#000000;solid-opacity:1;vector-effect:none;fill:#ffca28;fill-opacity:1;fill-rule:nonzero;stroke:none;stroke-width:0.52916664;stroke-linecap:round;stroke-linejoin:miter;stroke-miterlimit:4;stroke-dasharray:none;stroke-dashoffset:0;stroke-opacity:1;color-rendering:auto;image-rendering:auto;shape-rendering:auto;text-rendering:auto;enable-background:accumulate"
       d="m 4.5175783,11.57613 c -0.059061,8.89e-4 -0.1161269,0.02151 -0.1621093,0.05859 l -0.4160157,0.328125 c -0.2773432,0.21875 0.050782,0.634765 0.328125,0.416015 l 0.4140625,-0.328121 c 0.2019613,-0.154795 0.09038,-0.477584 -0.1640625,-0.474609 z"
       id="path6179"
       inkscape:connector-curvature="0"
       sodipodi:nodetypes="cccccc" />
    <path
       inkscape:connector-curvature="0"
       style="fill:#ecb200;fill-opacity:1;stroke:none;stroke-width:0.29018641px;stroke-linecap:butt;stroke-linejoin:miter;stroke-opacity:1"
       d="M 1.8628811,14.804984 C 1.5918424,15.351325 1.194596,15.719252 0.82909207,15.959495 1.0474665,16.232925 1.2113119,16.56644 1.307446,16.933206 1.5071821,16.16712 1.9945303,15.571002 2.6127182,15.336614 2.3344376,15.230353 2.0784013,15.048825 1.8628811,14.804984 Z"
       id="path6184"
       sodipodi:nodetypes="ccccc" />
    <path
       inkscape:connector-curvature="0"
       style="color:#000000;font-style:normal;font-variant:normal;font-weight:normal;font-stretch:normal;font-size:medium;line-height:normal;font-family:sans-serif;font-variant-ligatures:normal;font-variant-position:normal;font-variant-caps:normal;font-variant-numeric:normal;font-variant-alternates:normal;font-feature-settings:normal;text-indent:0;text-align:start;text-decoration:none;text-decoration-line:none;text-decoration-style:solid;text-decoration-color:#000000;letter-spacing:normal;word-spacing:normal;text-transform:none;writing-mode:lr-tb;direction:ltr;text-orientation:mixed;dominant-baseline:auto;baseline-shift:baseline;text-anchor:start;white-space:normal;shape-padding:0;clip-rule:nonzero;display:inline;overflow:visible;visibility:visible;opacity:1;isolation:auto;mix-blend-mode:normal;color-interpolation:sRGB;color-interpolation-filters:linearRGB;solid-color:#000000;solid-opacity:1;vector-effect:none;fill:#c4dcf0;fill-opacity:1;fill-rule:nonzero;stroke:none;stroke-width:0.52916664;stroke-linecap:round;stroke-linejoin:miter;stroke-miterlimit:4;stroke-dasharray:none;stroke-dashoffset:0;stroke-opacity:1;color-rendering:auto;image-rendering:auto;shape-rendering:auto;text-rendering:auto;enable-background:accumulate"
       d="m 6.8791668,13.493708 v 0.529166 h 3.1750002 v -0.529166 z"
       id="path6241"
       sodipodi:nodetypes="ccccc" />
    <path
       inkscape:connector-curvature="0"
       id="path6239"
       d="m 6.8791667,13.228994 c -0.3531711,-3.07e-4 -0.3531711,0.52899 0,0.529297 h 3.1750003 c 0.353171,3.07e-4 0.353171,-0.52899 0,-0.529297 z"
       style="color:#000000;font-style:normal;font-variant:normal;font-weight:normal;font-stretch:normal;font-size:medium;line-height:normal;font-family:sans-serif;font-variant-ligatures:normal;font-variant-position:normal;font-variant-caps:normal;font-variant-numeric:normal;font-variant-alternates:normal;font-feature-settings:normal;text-indent:0;text-align:start;text-decoration:none;text-decoration-line:none;text-decoration-style:solid;text-decoration-color:#000000;letter-spacing:normal;word-spacing:normal;text-transform:none;writing-mode:lr-tb;direction:ltr;text-orientation:mixed;dominant-baseline:auto;baseline-shift:baseline;text-anchor:start;white-space:normal;shape-padding:0;clip-rule:nonzero;display:inline;overflow:visible;visibility:visible;opacity:1;isolation:auto;mix-blend-mode:normal;color-interpolation:sRGB;color-interpolation-filters:linearRGB;solid-color:#000000;solid-opacity:1;vector-effect:none;fill:#e4eff8;fill-opacity:1;fill-rule:nonzero;stroke:none;stroke-width:0.52916664;stroke-linecap:round;stroke-linejoin:miter;stroke-miterlimit:4;stroke-dasharray:none;stroke-dashoffset:0;stroke-opacity:1;color-rendering:auto;image-rendering:auto;shape-rendering:auto;text-rendering:auto;enable-background:accumulate"
       sodipodi:nodetypes="ccccc" />
    <path
       id="path6248"
       d="m 6.8791668,14.552041 v 0.529167 h 3.1750002 v -0.529167 z"
       style="color:#000000;font-style:normal;font-variant:normal;font-weight:normal;font-stretch:normal;font-size:medium;line-height:normal;font-family:sans-serif;font-variant-ligatures:normal;font-variant-position:normal;font-variant-caps:normal;font-variant-numeric:normal;font-variant-alternates:normal;font-feature-settings:normal;text-indent:0;text-align:start;text-decoration:none;text-decoration-line:none;text-decoration-style:solid;text-decoration-color:#000000;letter-spacing:normal;word-spacing:normal;text-transform:none;writing-mode:lr-tb;direction:ltr;text-orientation:mixed;dominant-baseline:auto;baseline-shift:baseline;text-anchor:start;white-space:normal;shape-padding:0;clip-rule:nonzero;display:inline;overflow:visible;visibility:visible;opacity:1;isolation:auto;mix-blend-mode:normal;color-interpolation:sRGB;color-interpolation-filters:linearRGB;solid-color:#000000;solid-opacity:1;vector-effect:none;fill:#c4dcf0;fill-opacity:1;fill-rule:nonzero;stroke:none;stroke-width:0.52916664;stroke-linecap:round;stroke-linejoin:miter;stroke-miterlimit:4;stroke-dasharray:none;stroke-dashoffset:0;stroke-opacity:1;color-rendering:auto;image-rendering:auto;shape-rendering:auto;text-rendering:auto;enable-background:accumulate"
       inkscape:connector-curvature="0"
       sodipodi:nodetypes="ccccc" />
    <path
       sodipodi:nodetypes="ccccc"
       style="color:#000000;font-style:normal;font-variant:normal;font-weight:normal;font-stretch:normal;font-size:medium;line-height:normal;font-family:sans-serif;font-variant-ligatures:normal;font-variant-position:normal;font-variant-caps:normal;font-variant-numeric:normal;font-variant-alternates:normal;font-feature-settings:normal;text-indent:0;text-align:start;text-decoration:none;text-decoration-line:none;text-decoration-style:solid;text-decoration-color:#000000;letter-spacing:normal;word-spacing:normal;text-transform:none;writing-mode:lr-tb;direction:ltr;text-orientation:mixed;dominant-baseline:auto;baseline-shift:baseline;text-anchor:start;white-space:normal;shape-padding:0;clip-rule:nonzero;display:inline;overflow:visible;visibility:visible;opacity:1;isolation:auto;mix-blend-mode:normal;color-interpolation:sRGB;color-interpolation-filters:linearRGB;solid-color:#000000;solid-opacity:1;vector-effect:none;fill:#e4eff8;fill-opacity:1;fill-rule:nonzero;stroke:none;stroke-width:0.52916664;stroke-linecap:round;stroke-linejoin:miter;stroke-miterlimit:4;stroke-dasharray:none;stroke-dashoffset:0;stroke-opacity:1;color-rendering:auto;image-rendering:auto;shape-rendering:auto;text-rendering:auto;enable-background:accumulate"
       d="m 6.8791667,14.287393 c -0.3531711,-3.07e-4 -0.3531711,0.52899 0,0.529297 h 3.1750003 c 0.353171,3.07e-4 0.353171,-0.52899 0,-0.529297 z"
       id="path6246"
       inkscape:connector-curvature="0" />
    <path
       inkscape:connector-curvature="0"
       style="color:#000000;font-style:normal;font-variant:normal;font-weight:normal;font-stretch:normal;font-size:medium;line-height:normal;font-family:sans-serif;font-variant-ligatures:normal;font-variant-position:normal;font-variant-caps:normal;font-variant-numeric:normal;font-variant-alternates:normal;font-feature-settings:normal;text-indent:0;text-align:start;text-decoration:none;text-decoration-line:none;text-decoration-style:solid;text-decoration-color:#000000;letter-spacing:normal;word-spacing:normal;text-transform:none;writing-mode:lr-tb;direction:ltr;text-orientation:mixed;dominant-baseline:auto;baseline-shift:baseline;text-anchor:start;white-space:normal;shape-padding:0;clip-rule:nonzero;display:inline;overflow:visible;visibility:visible;opacity:1;isolation:auto;mix-blend-mode:normal;color-interpolation:sRGB;color-interpolation-filters:linearRGB;solid-color:#000000;solid-opacity:1;vector-effect:none;fill:#ecb200;fill-opacity:1;fill-rule:nonzero;stroke:none;stroke-width:0.52916664;stroke-linecap:round;stroke-linejoin:round;stroke-miterlimit:4;stroke-dasharray:none;stroke-dashoffset:0;stroke-opacity:1;color-rendering:auto;image-rendering:auto;shape-rendering:auto;text-rendering:auto;enable-background:accumulate"
       d="M 12.007019,6.8507023 C 11.610886,7.3584625 11.169254,7.8802867 10.683586,8.4051293 9.2266769,9.9795528 7.6249235,11.333878 6.2311443,12.217816 6.3496282,12.364095 6.4542447,12.50582 6.5401694,12.646214 7.9825439,11.727868 9.6061804,10.349533 11.071676,8.7658307 11.49095,8.3127381 11.87893,7.8611928 12.234912,7.4175927 12.172195,7.2215211 12.097807,7.0313688 12.007019,6.8507023 Z"
       id="path6287"
       sodipodi:nodetypes="ccccccc" />
    <path
       style="color:#000000;font-style:normal;font-variant:normal;font-weight:normal;font-stretch:normal;font-size:medium;line-height:normal;font-family:sans-serif;font-variant-ligatures:normal;font-variant-position:normal;font-variant-caps:normal;font-variant-numeric:normal;font-variant-alternates:normal;font-feature-settings:normal;text-indent:0;text-align:start;text-decoration:none;text-decoration-line:none;text-decoration-style:solid;text-decoration-color:#000000;letter-spacing:normal;word-spacing:normal;text-transform:none;writing-mode:lr-tb;direction:ltr;text-orientation:mixed;dominant-baseline:auto;baseline-shift:baseline;text-anchor:start;white-space:normal;shape-padding:0;clip-rule:nonzero;display:inline;overflow:visible;visibility:visible;opacity:1;isolation:auto;mix-blend-mode:normal;color-interpolation:sRGB;color-interpolation-filters:linearRGB;solid-color:#000000;solid-opacity:1;vector-effect:none;fill:#e4eff8;fill-opacity:1;fill-rule:nonzero;stroke:none;stroke-width:0.52916664;stroke-linecap:round;stroke-linejoin:round;stroke-miterlimit:4;stroke-dasharray:none;stroke-dashoffset:0;stroke-opacity:1;color-rendering:auto;image-rendering:auto;shape-rendering:auto;text-rendering:auto;enable-background:accumulate"
       d="M 2.8519055,1.6503339 C 2.4995274,1.7591197 2.2585038,2.0210968 2.1668958,2.3740136 1.9836797,3.0798472 2.370912,4.1138449 2.9320074,5.1112902 c 0.6211472,1.104198 1.5691395,2.3740369 2.7538495,3.6543058 2.3694197,2.560537 5.1536931,4.58854 6.9136261,4.993942 0.454235,0.104634 0.850435,0.102455 1.154573,-0.03038 0.336674,-0.14705 0.52506,-0.434829 0.586953,-0.783065 0.119211,-0.670722 -0.194511,-1.623837 -0.881121,-2.800806 -0.175857,-0.3116439 -0.641732,-0.04 -0.457133,0.266546 0.658017,1.127956 0.901465,1.96983 0.817592,2.441728 -0.03871,0.217797 -0.142796,0.332656 -0.278976,0.389461 -0.160357,0.07004 -0.434705,0.08947 -0.823116,0 C 11.089772,12.867895 8.3973718,10.915981 6.0739368,8.4051371 4.9122197,7.1497158 3.9864328,5.9060749 3.3932841,4.8516493 2.7877559,3.7752172 2.5719989,2.9212432 2.679272,2.5079772 2.7329085,2.3013442 2.8541612,2.2019063 3.0079661,2.1544238 3.1940806,2.0969668 3.4946172,2.103629 3.8808011,2.2069043 4.6531688,2.4134549 5.7465092,2.9922915 6.989585,3.9152854 7.2744589,4.1422603 7.6046024,3.6996661 7.3058495,3.4912975 6.0298205,2.5438356 4.9059669,1.933131 4.0189078,1.6959092 3.5753784,1.5772982 3.1850987,1.5474709 2.8519055,1.6503339 Z"
       id="path6258"
       inkscape:connector-curvature="0"
       sodipodi:nodetypes="ccccccccccccccccccccc" />
    <path
       inkscape:connector-curvature="0"
       style="color:#000000;font-style:normal;font-variant:normal;font-weight:normal;font-stretch:normal;font-size:medium;line-height:normal;font-family:sans-serif;font-variant-ligatures:normal;font-variant-position:normal;font-variant-caps:normal;font-variant-numeric:normal;font-variant-alternates:normal;font-feature-settings:normal;text-indent:0;text-align:start;text-decoration:none;text-decoration-line:none;text-decoration-style:solid;text-decoration-color:#000000;letter-spacing:normal;word-spacing:normal;text-transform:none;writing-mode:lr-tb;direction:ltr;text-orientation:mixed;dominant-baseline:auto;baseline-shift:baseline;text-anchor:start;white-space:normal;shape-padding:0;clip-rule:nonzero;display:inline;overflow:visible;visibility:visible;opacity:1;isolation:auto;mix-blend-mode:normal;color-interpolation:sRGB;color-interpolation-filters:linearRGB;solid-color:#000000;solid-opacity:1;vector-effect:none;fill:#c4dcf0;fill-opacity:1;fill-rule:nonzero;stroke:none;stroke-width:0.52916664;stroke-linecap:round;stroke-linejoin:round;stroke-miterlimit:4;stroke-dasharray:none;stroke-dashoffset:0;stroke-opacity:1;color-rendering:auto;image-rendering:auto;shape-rendering:auto;text-rendering:auto;enable-background:accumulate"
       d="m 8.3783002,10.615847 c -0.1386676,0.117636 -0.276652,0.231542 -0.4144452,0.343132 0.1380056,0.117918 0.2758414,0.231785 0.4134115,0.344165 C 8.5153716,11.190424 8.6536822,11.0778 8.7922284,10.959495 8.6548443,10.848206 8.5165521,10.733145 8.3783002,10.615847 Z"
       id="path6297"
       sodipodi:nodetypes="ccccc" />
    <path
       sodipodi:nodetypes="ccccccccccccccccccccc"
       inkscape:connector-curvature="0"
       id="path6264"
       d="m 13.634846,1.6503339 c 0.352378,0.1087858 0.593402,0.3707629 0.68501,0.7236797 0.183216,0.7058336 -0.204017,1.7398312 -0.765112,2.7372766 -0.621147,1.104198 -1.569139,2.3740369 -2.753849,3.6543058 -2.36942,2.560537 -5.1536936,4.58854 -6.9136266,4.993942 -0.454235,0.104634 -0.850435,0.102455 -1.154573,-0.03038 -0.336674,-0.14705 -0.52506,-0.434829 -0.586953,-0.783065 -0.119211,-0.670722 0.194511,-1.623837 0.881121,-2.800806 0.175857,-0.3116439 0.641732,-0.04 0.457133,0.266546 -0.658017,1.127956 -0.901465,1.96983 -0.817592,2.441728 0.03871,0.217797 0.142796,0.332656 0.278976,0.389461 0.160357,0.07004 0.434705,0.08947 0.823116,0 C 5.3969794,12.867895 8.0893798,10.915981 10.412815,8.4051371 11.574532,7.1497158 12.500319,5.9060749 13.093467,4.8516493 13.698996,3.7752172 13.914753,2.9212432 13.807479,2.5079772 13.753843,2.3013442 13.63259,2.2019063 13.478785,2.1544238 13.292671,2.0969668 12.992134,2.103629 12.60595,2.2069043 11.833583,2.4134549 10.740242,2.9922915 9.4971666,3.9152854 9.2122927,4.1422603 8.8821492,3.6996661 9.1809021,3.4912975 10.456931,2.5438356 11.580785,1.933131 12.467844,1.6959092 c 0.443529,-0.118611 0.833809,-0.1484383 1.167002,-0.045575 z"
       style="color:#000000;font-style:normal;font-variant:normal;font-weight:normal;font-stretch:normal;font-size:medium;line-height:normal;font-family:sans-serif;font-variant-ligatures:normal;font-variant-position:normal;font-variant-caps:normal;font-variant-numeric:normal;font-variant-alternates:normal;font-feature-settings:normal;text-indent:0;text-align:start;text-decoration:none;text-decoration-line:none;text-decoration-style:solid;text-decoration-color:#000000;letter-spacing:normal;word-spacing:normal;text-transform:none;writing-mode:lr-tb;direction:ltr;text-orientation:mixed;dominant-baseline:auto;baseline-shift:baseline;text-anchor:start;white-space:normal;shape-padding:0;clip-rule:nonzero;display:inline;overflow:visible;visibility:visible;opacity:1;isolation:auto;mix-blend-mode:normal;color-interpolation:sRGB;color-interpolation-filters:linearRGB;solid-color:#000000;solid-opacity:1;vector-effect:none;fill:#e4eff8;fill-opacity:1;fill-rule:nonzero;stroke:none;stroke-width:0.52916664;stroke-linecap:round;stroke-linejoin:round;stroke-miterlimit:4;stroke-dasharray:none;stroke-dashoffset:0;stroke-opacity:1;color-rendering:auto;image-rendering:auto;shape-rendering:auto;text-rendering:auto;enable-background:accumulate" />
    <path
       sodipodi:nodetypes="ccccc"
       style="color:#000000;font-style:normal;font-variant:normal;font-weight:normal;font-stretch:normal;font-size:medium;line-height:normal;font-family:sans-serif;font-variant-ligatures:normal;font-variant-position:normal;font-variant-caps:normal;font-variant-numeric:normal;font-variant-alternates:normal;font-feature-settings:normal;text-indent:0;text-align:start;text-decoration:none;text-decoration-line:none;text-decoration-style:solid;text-decoration-color:#000000;letter-spacing:normal;word-spacing:normal;text-transform:none;writing-mode:lr-tb;direction:ltr;text-orientation:mixed;dominant-baseline:auto;baseline-shift:baseline;text-anchor:start;white-space:normal;shape-padding:0;clip-rule:nonzero;display:inline;overflow:visible;visibility:visible;opacity:1;isolation:auto;mix-blend-mode:normal;color-interpolation:sRGB;color-interpolation-filters:linearRGB;solid-color:#000000;solid-opacity:1;vector-effect:none;fill:#ffca28;fill-opacity:1;fill-rule:nonzero;stroke:none;stroke-width:0.52916664;stroke-linecap:round;stroke-linejoin:miter;stroke-miterlimit:4;stroke-dasharray:none;stroke-dashoffset:0;stroke-opacity:1;color-rendering:auto;image-rendering:auto;shape-rendering:auto;text-rendering:auto;enable-background:accumulate"
       d="m 2.9104496,8.466559 c -0.352865,0 -0.352865,0.5292972 0,0.5292972 h 0.529101 c 0.352865,0 0.352865,-0.5292972 0,-0.5292972 z"
       id="path6282"
       inkscape:connector-curvature="0" />
    <path
       inkscape:connector-curvature="0"
       style="fill:#c4dcf0;fill-opacity:1;stroke:none;stroke-width:0.26458332px;stroke-linecap:butt;stroke-linejoin:miter;stroke-opacity:1"
       d="M 16.10341,6.6594995 C 15.893715,7.0546082 15.540794,7.3211431 15.235762,7.4899398 15.406587,7.6912996 15.534929,7.9349011 15.610933,8.202041 15.772779,7.6305309 16.167735,7.1857963 16.66875,7.0108993 16.461553,6.938787 16.269238,6.8192489 16.10341,6.6594995 Z"
       id="path6303"
       sodipodi:nodetypes="ccccc" />
    <path
       id="path6310"
       d="M 1.81591,6.6594996 C 1.6062155,7.0546081 1.2532944,7.321143 0.94826268,7.4899398 1.1190877,7.6912996 1.2474293,7.9349011 1.3234336,8.202041 1.4852798,7.630531 1.8802351,7.1857964 2.3812502,7.0108993 2.1740534,6.9387871 1.9817377,6.819249 1.81591,6.6594996 Z"
       style="fill:#c4dcf0;fill-opacity:1;stroke:none;stroke-width:0.26458332px;stroke-linecap:butt;stroke-linejoin:miter;stroke-opacity:1"
       inkscape:connector-curvature="0"
       sodipodi:nodetypes="ccccc" />
    <path
       inkscape:connector-curvature="0"
       style="fill:#ecb200;fill-opacity:1;stroke:none;stroke-width:0.26458332px;stroke-linecap:butt;stroke-linejoin:miter;stroke-opacity:1"
       d="M 1.3141319,0.69862311 C 1.1281214,1.0867675 0.82235934,1.3076278 0.55035424,1.4308781 0.72334812,1.6188301 0.85276095,1.8547241 0.92655866,2.1166244 1.0681477,1.6086143 1.413708,1.2132747 1.8520836,1.0577743 1.6520284,0.98633475 1.4682209,0.86361988 1.3141319,0.69862311 Z"
       id="path6312"
       sodipodi:nodetypes="ccccc" />
    <path
       id="path6318"
       d="M 16.395381,0.69862311 C 16.20937,1.0867675 15.903608,1.3076278 15.631603,1.4308781 15.804597,1.61883 15.93401,1.854724 16.007808,2.1166244 16.149397,1.6086142 16.494957,1.2132747 16.933333,1.0577743 16.733278,0.9863348 16.54947,0.86361993 16.395381,0.69862311 Z"
       style="fill:#ecb200;fill-opacity:1;stroke:none;stroke-width:0.26458332px;stroke-linecap:butt;stroke-linejoin:miter;stroke-opacity:1"
       inkscape:connector-curvature="0"
       sodipodi:nodetypes="ccccc" />
  </g>
</svg>
