<?xml version="1.0" encoding="UTF-8" standalone="no"?> <svg xmlns="http://www.w3.org/2000/svg" viewBox="0 0 32 32"><defs><style>.cls-1{fill:#2d4a60;}.cls-2{fill:#263f52;}.cls-3{fill:#eaeff0;}</style></defs><title>Clapboard</title><g id="Clapboard"><path class="cls-1" d="M23,29H9a5,5,0,0,1-5-5V15H28v9A5,5,0,0,1,23,29Z"/><path class="cls-2" d="M28,16H4V11H28Z"/><polygon class="cls-3" points="19.775 16 16.215 16 12.215 11 15.775 11 19.775 16"/><polygon class="cls-3" points="12.785 16 9.225 16 5.225 11 8.785 11 12.785 16"/><polygon class="cls-3" points="26.775 16 23.215 16 19.215 11 22.775 11 26.775 16"/><path class="cls-2" d="M3.606,8.026A2,2,0,0,1,5.327,5.781L25.154,3.157A2,2,0,0,1,27.4,4.878l.394,2.974L4,11Z"/><path class="cls-3" d="M25.154,3.157l-2.761.366L19.083,9l3.53-.467,3.231-5.343A1.985,1.985,0,0,0,25.154,3.157Z"/><polygon class="cls-3" points="12.144 9.922 15.673 9.455 18.983 3.974 15.454 4.441 12.144 9.922"/><polygon class="cls-3" points="5.214 10.839 8.744 10.372 12.053 4.891 8.524 5.358 5.214 10.839"/></g></svg>