<?xml version="1.0" encoding="iso-8859-1"?>
<!-- Generator: Adobe Illustrator 24.3.0, SVG Export Plug-In . SVG Version: 6.00 Build 0)  -->
<svg version="1.1" xmlns="http://www.w3.org/2000/svg" xmlns:xlink="http://www.w3.org/1999/xlink" x="0px" y="0px"
	 viewBox="0 0 512 512" style="enable-background:new 0 0 512 512;" xml:space="preserve">
<g id="_x33_19_x2C__Book_x2C__Story_x2C__Writing_x2C_">
	<g>
		<g>
			<g id="XMLID_25472_">
				<g>
					<g>
						<path style="fill:#965E33;" d="M443.5,123.499v25h-30h-30v-25c0-16.57,13.43-30,30-30S443.5,106.929,443.5,123.499z"/>
					</g>
					<g>
						<polygon style="fill:#965E33;" points="443.5,268.499 443.5,293.499 413.56,293.499 413.55,268.499 						"/>
					</g>
					<g>
						<polygon style="fill:#965E33;" points="443.5,293.499 443.5,318.499 413.57,318.499 413.56,293.499 						"/>
					</g>
					<g>
						<polygon style="fill:#965E33;" points="413.56,293.499 413.57,318.499 383.5,318.499 383.5,293.499 						"/>
					</g>
					<g>
						<polygon style="fill:#965E33;" points="413.55,268.499 413.56,293.499 383.5,293.499 383.5,268.499 						"/>
					</g>
					<g>
						<path style="fill:#965E33;" d="M443.5,354.049v19.45l-30,60l-30-60v-18.54c0,4.021,1.63,7.65,4.26,10.28
							c2.63,2.63,6.26,4.26,10.28,4.26c8,0,15.5-6.46,15.55-14.46v-0.98c0,8.52,5.93,15.44,14.46,15.44
							c4.271,0,8.13-1.73,10.92-4.53C441.77,362.179,443.5,358.32,443.5,354.049z"/>
					</g>
					<g>
						<path style="fill:#BF7D4F;" d="M443.5,318.499v35.55c0,4.27-1.73,8.13-4.53,10.92c-2.79,2.8-6.649,4.53-10.92,4.53
							c-8.53,0-14.46-6.92-14.46-15.44c0-0.04,0-0.069,0-0.109l-0.02-35.45H443.5z"/>
					</g>
					<g>
						<path style="fill:#BF7D4F;" d="M413.59,354.059v0.98c-0.05,8-7.55,14.46-15.55,14.46c-4.021,0-7.65-1.63-10.28-4.26
							c-2.63-2.63-4.26-6.26-4.26-10.28v-36.46h30.07l0.02,35.45C413.59,353.99,413.59,354.019,413.59,354.059z"/>
					</g>
					<g>
						<polygon style="fill:#BF7D4F;" points="443.5,148.499 443.5,268.499 413.55,268.499 413.5,148.499 						"/>
					</g>
					<g>
						<polygon style="fill:#BF7D4F;" points="413.5,148.499 413.55,268.499 383.5,268.499 383.5,148.499 						"/>
					</g>
					<g>
						<circle style="fill:#CE3B0D;" cx="458.5" cy="53.499" r="25"/>
					</g>
					<g>
						<circle style="fill:#CE3B0D;" cx="43.5" cy="458.499" r="15"/>
					</g>
					<g>
						<polygon style="fill:#DF6426;" points="323.5,448.499 323.5,483.499 293.5,443.499 263.5,483.499 263.5,448.499 
							263.5,323.499 323.5,323.499 						"/>
					</g>
					<g>
						<path style="fill:#965E33;" d="M128.5,93.499v355H106c-20.71,0-37.5-16.79-37.5-37.5v-325c0-20.71,16.79-37.5,37.5-37.5h22.5
							V93.499z"/>
					</g>
					<g>
						<rect x="158.5" y="173.499" style="fill:#965E33;" width="165" height="25"/>
					</g>
					<g>
						<rect x="158.5" y="123.499" style="fill:#965E33;" width="165" height="50"/>
					</g>
					<g>
						<rect x="128.5" y="48.499" style="fill:#E4F4FF;" width="225" height="45"/>
					</g>
					<g>
						<path style="fill:#E4F4FF;" d="M353.5,93.499v355h-30v-125h-60v125h-135v-355H353.5z M323.5,198.499v-25v-50h-165v50v25H323.5
							z"/>
					</g>
					<g>
						<circle cx="476" cy="160.999" r="7.5"/>
					</g>
					<g>
						<circle cx="466" cy="415.999" r="7.5"/>
					</g>
					<g>
						<circle cx="386" cy="30.999" r="7.5"/>
					</g>
					<g>
						<circle cx="386" cy="460.999" r="7.5"/>
					</g>
					<g>
						<circle cx="41" cy="50.999" r="7.5"/>
					</g>
					<g>
						<circle cx="41" cy="280.999" r="7.5"/>
					</g>
				</g>
				<g>
					<g>
						<path d="M128.5,453.499c-2.761,0-5-2.238-5-5v-400c0-2.761,2.239-5,5-5s5,2.239,5,5v400
							C133.5,451.261,131.261,453.499,128.5,453.499z"/>
					</g>
					<g>
						<path d="M353.5,98.499h-225c-2.761,0-5-2.239-5-5s2.239-5,5-5h225c2.762,0,5,2.239,5,5S356.262,98.499,353.5,98.499z"/>
					</g>
					<g>
						<path d="M323.5,203.499h-165c-2.761,0-5-2.239-5-5v-75c0-2.761,2.239-5,5-5h165c2.762,0,5,2.239,5,5v75
							C328.5,201.26,326.262,203.499,323.5,203.499z M163.5,193.499h155v-65h-155V193.499z"/>
					</g>
					<g>
						<path d="M323.5,228.499h-165c-2.761,0-5-2.239-5-5s2.239-5,5-5h165c2.762,0,5,2.239,5,5S326.262,228.499,323.5,228.499z"/>
					</g>
					<g>
						<path d="M308.5,253.499h-135c-2.761,0-5-2.238-5-5c0-2.762,2.239-5,5-5h135c2.762,0,5,2.238,5,5
							C313.5,251.261,311.262,253.499,308.5,253.499z"/>
					</g>
					<g>
						<path d="M278.5,278.499h-75c-2.761,0-5-2.238-5-5c0-2.762,2.239-5,5-5h75c2.762,0,5,2.238,5,5
							C283.5,276.261,281.262,278.499,278.5,278.499z"/>
					</g>
					<g>
						<path d="M323.5,178.499h-165c-2.761,0-5-2.239-5-5s2.239-5,5-5h165c2.762,0,5,2.239,5,5S326.262,178.499,323.5,178.499z"/>
					</g>
					<g>
						<path d="M353.5,453.499h-30c-2.762,0-5-2.238-5-5c0-2.762,2.238-5,5-5h25v-390H106c-17.92,0-32.5,14.58-32.5,32.5v325
							c0,17.921,14.58,32.5,32.5,32.5h157.5c2.762,0,5,2.238,5,5c0,2.762-2.238,5-5,5H106c-23.435,0-42.5-19.065-42.5-42.5v-325
							c0-23.435,19.065-42.5,42.5-42.5h247.5c2.762,0,5,2.239,5,5v400C358.5,451.261,356.262,453.499,353.5,453.499z"/>
					</g>
					<g>
						<path d="M398.04,374.499c-5.218,0-10.124-2.033-13.815-5.725c-3.691-3.691-5.725-8.598-5.725-13.815c0-2.762,2.238-5,5-5
							s5,2.238,5,5c0,2.547,0.993,4.942,2.795,6.745c1.803,1.802,4.198,2.795,6.745,2.795c5.49,0,10.519-4.523,10.55-9.491v-0.949
							c0-2.762,2.238-5,5-5c2.762,0,5,2.238,5,5v0.98C418.524,365.602,409.113,374.499,398.04,374.499z"/>
					</g>
					<g>
						<path d="M428.05,374.499c-11.094,0-19.46-8.787-19.46-20.44l-0.09-205.558c-0.001-2.761,2.236-5.001,4.998-5.002
							c0.001,0,0.001,0,0.002,0c2.761,0,4.999,2.237,5,4.998l0.09,205.562c0,5.188,3.249,10.44,9.46,10.44
							c2.792,0,5.412-1.087,7.378-3.06c1.985-1.979,3.072-4.599,3.072-7.391c0-2.762,2.238-5,5-5s5,2.238,5,5
							c0,5.47-2.131,10.605-6.001,14.462C438.655,372.368,433.52,374.499,428.05,374.499z"/>
					</g>
					<g>
						<path d="M413.5,438.499c-1.894,0-3.625-1.07-4.472-2.764l-30-60c-0.348-0.694-0.528-1.46-0.528-2.236v-225
							c0-2.761,2.238-5,5-5s5,2.239,5,5v223.819l25,50l25-50V148.499c0-2.761,2.238-5,5-5s5,2.239,5,5v225
							c0,0.776-0.181,1.542-0.528,2.236l-30,60C417.125,437.429,415.394,438.499,413.5,438.499z"/>
					</g>
					<g>
						<path d="M443.5,153.499h-60c-2.762,0-5-2.239-5-5v-25c0-19.299,15.701-35,35-35s35,15.701,35,35v25
							C448.5,151.26,446.262,153.499,443.5,153.499z M388.5,143.499h50v-20c0-13.785-11.215-25-25-25s-25,11.215-25,25V143.499z"/>
					</g>
					<g>
						<path d="M443.5,323.499h-60c-2.762,0-5-2.238-5-5c0-2.762,2.238-5,5-5h60c2.762,0,5,2.238,5,5
							C448.5,321.261,446.262,323.499,443.5,323.499z"/>
					</g>
					<g>
						<path d="M443.5,298.499h-60c-2.762,0-5-2.238-5-5c0-2.762,2.238-5,5-5h60c2.762,0,5,2.238,5,5
							C448.5,296.261,446.262,298.499,443.5,298.499z"/>
					</g>
					<g>
						<path d="M443.5,273.499h-60c-2.762,0-5-2.238-5-5c0-2.762,2.238-5,5-5h60c2.762,0,5,2.238,5,5
							C448.5,271.261,446.262,273.499,443.5,273.499z"/>
					</g>
					<g>
						<path d="M323.501,488.499c-1.544,0-3.038-0.717-4.001-2l-26-34.667l-26,34.667c-1.292,1.722-3.54,2.427-5.581,1.743
							c-2.042-0.681-3.419-2.591-3.419-4.743v-160c0-2.762,2.238-5,5-5h60c2.762,0,5,2.238,5,5v160c0,2.152-1.377,4.063-3.419,4.743
							C324.561,488.416,324.028,488.499,323.501,488.499z M293.5,438.499c1.574,0,3.056,0.741,4,2l21,28v-140h-50v140l21-28
							C290.444,439.24,291.926,438.499,293.5,438.499z"/>
					</g>
					<g>
						<path d="M458.5,83.499c-16.542,0-30-13.458-30-30s13.458-30,30-30s30,13.458,30,30S475.042,83.499,458.5,83.499z
							 M458.5,33.499c-11.028,0-20,8.972-20,20s8.972,20,20,20s20-8.972,20-20S469.528,33.499,458.5,33.499z"/>
					</g>
					<g>
						<path d="M43.5,478.499c-11.028,0-20-8.972-20-20c0-11.028,8.972-20,20-20s20,8.972,20,20
							C63.5,469.528,54.528,478.499,43.5,478.499z M43.5,448.499c-5.514,0-10,4.486-10,10s4.486,10,10,10s10-4.486,10-10
							S49.014,448.499,43.5,448.499z"/>
					</g>
				</g>
			</g>
		</g>
	</g>
</g>
<g id="Layer_1">
</g>
</svg>
